<mxfile host="app.diagrams.net" modified="2023-05-01T00:41:22.119Z" agent="Mozilla/5.0 (Windows NT 10.0; Win64; x64) AppleWebKit/537.36 (KHTML, like Gecko) Chrome/112.0.0.0 Safari/537.36" version="21.2.3" etag="46_S4a9-w-aO9XEtmsKp" type="github">
  <diagram name="Page-1" id="iU4zEiuhuP-EsvoMIu8-">
    <mxGraphModel>
      <root>
        <mxCell id="0" />
        <mxCell id="1" parent="0" />
      </root>
    </mxGraphModel>
  </diagram>
</mxfile>
